<?xml version="1.0" encoding="utf-8"?>
<!-- Generator: Adobe Illustrator 27.8.0, SVG Export Plug-In . SVG Version: 6.00 Build 0)  -->
<svg version="1.1" id="Layer_1" xmlns="http://www.w3.org/2000/svg" xmlns:xlink="http://www.w3.org/1999/xlink" x="0px" y="0px"
	 viewBox="0 0 350 350" style="enable-background:new 0 0 350 350;" xml:space="preserve">
<style type="text/css">
	.st0{fill:#FF0000;}
	.st1{fill:#FFFFFF;}
	.st2{display:none;}
	.st3{display:inline;}
	.st4{fill:#FF9200;}
	.st5{display:inline;fill:#FF9200;}
</style>
<g>
	<g>
		<g>
			<g>
				<path class="st0" d="M250,300H100c-27.6,0-50-22.4-50-50V100c0-27.6,22.4-50,50-50h150c27.6,0,50,22.4,50,50v150
					C300,277.6,277.6,300,250,300z"/>
				<g>
					<path class="st1" d="M148.3,166.4l-24.7-49.1c-0.3-0.7-1-1.1-1.8-1.1h-27c-1.5,0-2.5,1.6-1.8,2.9l41.7,77.6
						c0.8,1.5,3.1,1.4,3.6-0.3l10-28.5C148.6,167.5,148.5,166.9,148.3,166.4z"/>
					<path class="st1" d="M209.2,117c-0.2-0.6-0.1-1.2,0.2-1.7c1.4-2.2,3-4,4.8-5.5c3.8-3.1,8.2-4.7,13.3-4.7c3.2,0,6.1,0.2,8.9,0.7
						c1.2,0.2,2.3-0.7,2.3-2V85.3c0-0.9-0.7-1.8-1.6-2c-4.2-0.8-8.6-1.3-13-1.3c-10.1,0-18.9,2.7-26.5,8.2
						c-7.5,5.4-13.4,13.5-17.4,24.3h0l0,0.1c0,0,0,0,0,0l0,0l-37.1,104.7l-0.4,1.1c0,0,0,0.1,0,0.1l-0.6,2l-0.1,0.4l0,0l-0.9,2.6
						c-2.2,6.4-5.2,11.1-9,14.2c-3.8,3.1-8.3,4.7-13.5,4.7c-3.2,0-6.3-0.3-9.1-0.8c-1.2-0.2-2.3,0.7-2.3,2v19c0,0.9,0.7,1.8,1.6,2
						c4.3,0.9,8.7,1.3,13.2,1.3c10.2,0,19.2-2.8,26.8-8.3c7.7-5.5,13.5-13.8,17.7-25l26.8-75.1c0.6-1.8,3.2-1.8,3.8,0.1l28.6,92.8
						c0.3,0.8,1,1.4,1.9,1.4h27.1c1.4,0,2.3-1.4,1.9-2.7L209.2,117z"/>
				</g>
			</g>
			<g class="st2">
				<g class="st3">
					<polygon class="st4" points="136.8,177.4 104.5,113.4 64.9,113.4 122,219.7 					"/>
					<path class="st4" d="M213.6,113.1h-13.7l-8.3,27.4l14.8,49.5c2.2,7.2,4.8,15.4,7.6,24.6h-0.3l21.5,71.8h39.4L213.6,113.1z"/>
				</g>
				<path class="st5" d="M177.3,113.1l-46,129.9l-0.6,1.4l-0.8,2.5l-0.2,0.5l0,0l-1.1,3.3c-2.7,7.9-6.4,13.8-11.2,17.7
					c-4.8,3.9-10.3,5.8-16.7,5.8c-5.1,0-9.8-0.5-14.2-1.5v28.6c6,1.3,12.1,2,18.3,2c12.7,0,23.7-3.4,33.2-10.3
					c9.5-6.8,16.8-17.2,21.9-30.9l53.2-148.9H177.3z"/>
				<line class="st4" x1="168.3" y1="207.5" x2="227.3" y2="207.5"/>
				<path class="st5" d="M160.6,260.5l46-129.9l0.6-1.4l0.8-2.5l0.2-0.5l0,0l1.1-3.3c2.7-7.9,6.4-13.8,11.2-17.7
					c4.8-3.9,10.3-5.8,16.7-5.8c5.1,0,9.8,0.5,14.2,1.5V72.4c-6-1.3-12.1-2-18.3-2c-12.7,0-23.7,3.4-33.2,10.3
					c-9.5,6.8-16.8,17.2-21.9,30.9l-52.3,148.9H160.6z"/>
			</g>
		</g>
	</g>
</g>
</svg>
